
<svg version="1.1" xmlns="http://www.w3.org/2000/svg" xmlns:xlink="http://www.w3.org/1999/xlink" x="0px" y="0px"
	 width="50px" height="50px" viewBox="0 0 50 50" enable-background="new 0 0 50 50" xml:space="preserve">
<path fill="#FFFFFF" d="M0,0.001V50h50V0.001H0z M42.859,39.289c0,1.963-1.606,3.57-3.57,3.57H10.711c-1.963,0-3.57-1.607-3.57-3.57
	v-0.002c0-1.963,1.607-3.57,3.57-3.57h28.578c1.964,0,3.57,1.607,3.57,3.57V39.289z M42.859,25.001c0,1.962-1.606,3.569-3.57,3.569
	H10.711c-1.963,0-3.57-1.607-3.57-3.569v0c0-1.963,1.607-3.57,3.57-3.57h28.578C41.253,21.43,42.859,23.037,42.859,25.001
	L42.859,25.001z M42.859,10.713c0,1.963-1.606,3.57-3.57,3.57H10.711c-1.963,0-3.57-1.607-3.57-3.57v0c0-1.963,1.607-3.57,3.57-3.57
	h28.578C41.253,7.142,42.859,8.749,42.859,10.713L42.859,10.713z"/>
</svg>
