<?xml version="1.0" encoding="utf-8"?>
<!-- Generator: Adobe Illustrator 16.0.0, SVG Export Plug-In . SVG Version: 6.00 Build 0)  -->
<!DOCTYPE svg PUBLIC "-//W3C//DTD SVG 1.1//EN" "http://www.w3.org/Graphics/SVG/1.1/DTD/svg11.dtd">
<svg version="1.1" id="Layer_1" xmlns="http://www.w3.org/2000/svg" xmlns:xlink="http://www.w3.org/1999/xlink" x="0px" y="0px"
	 width="418.757px" height="76.932px" viewBox="0 0 418.757 76.932" enable-background="new 0 0 418.757 76.932"
	 xml:space="preserve">
<g>
	<g>
		<path fill="#FFFFFF" d="M75.915,76.63v-1.12c1.661,0,2.491-0.544,2.491-1.629V62.218c0-1.405-0.866-2.107-2.598-2.107v-1.175
			h9.372v1.175c-1.589,0-2.383,0.702-2.383,2.107v11.663c0,1.085,0.839,1.629,2.518,1.629v1.12H75.915z"/>
		<path fill="#FFFFFF" d="M90.973,59.01h1.869l11.135,14.121V59.01h1.944v17.62h-1.591L92.917,62.181V76.63h-1.945V59.01z"/>
		<path fill="#FFFFFF" d="M109.665,59.01h2.222l6.287,15.178l6.313-15.178h2.146l-7.601,17.746h-1.767L109.665,59.01z"/>
		<path fill="#FFFFFF" d="M130.375,59.01h12.777v1.812H132.37v6.016h9.646v1.812h-9.646v6.168h10.908v1.812h-12.903V59.01z"/>
		<path fill="#FFFFFF" d="M147.551,59.01h1.869l11.135,14.121V59.01h1.944v17.62h-1.591l-11.413-14.449V76.63h-1.945V59.01z"/>
		<path fill="#FFFFFF" d="M172.43,60.846h-5.934V59.01h13.887v1.836h-5.934V76.63h-2.02V60.846z"/>
		<path fill="#FFFFFF" d="M188.645,58.884h1.868l8.054,17.746h-2.146l-2.07-4.657h-9.62l-2.096,4.657h-2.045L188.645,58.884z
			 M193.568,70.186l-4.016-8.986l-4.039,8.986H193.568z M191.295,53.949l1.995,0.906l-2.903,2.341h-1.616L191.295,53.949z"/>
		<path fill="#FFFFFF" d="M202.311,59.01h7.6c2.171,0,3.914,0.654,5.025,1.762c0.857,0.855,1.365,2.089,1.365,3.474v0.051
			c0,2.919-2.021,4.632-4.799,5.134l5.43,7.2h-2.451l-5.125-6.847h-5.05v6.847h-1.995V59.01z M209.734,67.996
			c2.652,0,4.544-1.359,4.544-3.625V64.32c0-2.166-1.666-3.475-4.519-3.475h-5.454v7.15H209.734z"/>
		<path fill="#FFFFFF" d="M221.001,59.01h1.996v17.62h-1.996V59.01z"/>
		<path fill="#FFFFFF" d="M227.644,67.869v-0.051c0-4.857,3.662-9.111,9.039-9.111c5.379,0,8.99,4.203,8.99,9.062v0.049
			c0,4.859-3.66,9.113-9.039,9.113S227.644,72.729,227.644,67.869z M243.603,67.869v-0.051c0-4.002-2.93-7.274-6.969-7.274
			s-6.918,3.222-6.918,7.226v0.049c0,4.003,2.928,7.275,6.967,7.275C240.724,75.094,243.603,71.871,243.603,67.869z"/>
		<path fill="#FFFFFF" d="M263.519,76.63v-1.12c1.535,0,2.303-0.649,2.303-1.949V62.218c0-1.405-0.83-2.107-2.49-2.107v-1.175
			h15.049l0.455,5.124l-1.768,0.16c-0.16-0.872-0.389-1.565-0.682-2.082c-0.295-0.515-0.662-0.898-1.098-1.147
			c-0.438-0.248-0.961-0.408-1.568-0.479s-1.293-0.106-2.061-0.106c-0.965,0-1.445,0.301-1.445,0.902v4.572
			c0,0.549,0.445,0.822,1.338,0.822c0.445,0,0.809-0.04,1.084-0.119c0.277-0.08,0.5-0.223,0.67-0.428
			c0.17-0.203,0.299-0.48,0.389-0.826c0.088-0.348,0.188-0.788,0.293-1.321h1.447v7.019h-1.473v-0.668
			c0-0.213-0.027-0.448-0.08-0.707c-0.053-0.258-0.18-0.497-0.375-0.721c-0.197-0.221-0.492-0.404-0.885-0.547
			c-0.393-0.141-0.918-0.213-1.58-0.213c-0.338,0-0.561,0.053-0.668,0.16s-0.16,0.258-0.16,0.453v4.777c0,1.3,0.91,1.949,2.73,1.949
			v1.12H263.519z"/>
		<path fill="#FFFFFF" d="M283.933,59.01h1.994v15.783h9.949v1.837h-11.943V59.01z"/>
		<path fill="#FFFFFF" d="M298.027,67.869v-0.051c0-4.857,3.66-9.111,9.039-9.111c5.377,0,8.99,4.203,8.99,9.062v0.049
			c0,4.859-3.662,9.113-9.041,9.113S298.027,72.729,298.027,67.869z M313.984,67.869v-0.051c0-4.002-2.93-7.274-6.969-7.274
			s-6.918,3.222-6.918,7.226v0.049c0,4.003,2.928,7.275,6.969,7.275C311.105,75.094,313.984,71.871,313.984,67.869z"/>
		<path fill="#FFFFFF" d="M320.533,59.01h7.6c2.172,0,3.914,0.654,5.025,1.762c0.857,0.855,1.363,2.089,1.363,3.474v0.051
			c0,2.919-2.021,4.632-4.799,5.134l5.43,7.2h-2.449l-5.125-6.847h-5.051v6.847h-1.994V59.01z M327.957,67.996
			c2.65,0,4.543-1.359,4.543-3.625V64.32c0-2.166-1.666-3.475-4.52-3.475h-5.453v7.15H327.957z"/>
		<path fill="#FFFFFF" d="M339.046,59.01h12.777v1.812h-10.783v6.016h9.646v1.812h-9.646v6.168h10.908v1.812h-12.902V59.01z"/>
		<path fill="#FFFFFF" d="M355.06,74.062l1.238-1.461c1.844,1.662,3.611,2.492,6.059,2.492c2.373,0,3.939-1.258,3.939-2.994v-0.051
			c0-1.637-0.883-2.568-4.594-3.349c-4.066-0.882-5.936-2.19-5.936-5.084v-0.05c0-2.771,2.449-4.809,5.809-4.809
			c2.574,0,4.418,0.729,6.211,2.164l-1.162,1.535c-1.641-1.333-3.283-1.913-5.1-1.913c-2.299,0-3.764,1.26-3.764,2.845v0.051
			c0,1.661,0.91,2.593,4.799,3.424c3.939,0.855,5.756,2.29,5.756,4.984v0.05c0,3.021-2.525,4.984-6.035,4.984
			C359.48,76.882,357.181,75.95,355.06,74.062z"/>
		<path fill="#FFFFFF" d="M376.931,60.846h-5.934V59.01h13.889v1.836h-5.936V76.63h-2.02V60.846z"/>
		<path fill="#FFFFFF" d="M393.148,58.884h1.867l8.055,17.746h-2.146l-2.07-4.657h-9.619l-2.096,4.657h-2.047L393.148,58.884z
			 M398.07,70.186l-4.014-8.986l-4.041,8.986H398.07z"/>
		<path fill="#FFFFFF" d="M406.814,59.01h1.994v15.783h9.949v1.837h-11.943V59.01z"/>
	</g>
	<g>
		<path fill="#FFFFFF" d="M54.12,63.483V44.2H34.031v19.283c0,7.691-2.235,9.177-11.541,10.044v3.103h43.42v-3.103
			C56.476,72.908,54.12,71.543,54.12,63.483z"/>
		<path fill="#FFFFFF" d="M22.49,33.321V30.22h43.42v3.101c-9.177,0.371-11.791,2.362-11.791,9.304V44.2h34.278
			C88.397,19.791,68.608,0,44.2,0C19.786,0,0,19.791,0,44.2h34.031v-1.575C34.031,35.683,31.418,33.948,22.49,33.321z"/>
	</g>
</g>
</svg>
