<?xml version="1.0" encoding="utf-8"?>
<!-- Generator: Adobe Illustrator 16.0.0, SVG Export Plug-In . SVG Version: 6.00 Build 0)  -->
<!DOCTYPE svg PUBLIC "-//W3C//DTD SVG 1.1//EN" "http://www.w3.org/Graphics/SVG/1.1/DTD/svg11.dtd">
<svg version="1.1" id="Layer_1" xmlns="http://www.w3.org/2000/svg" xmlns:xlink="http://www.w3.org/1999/xlink" x="0px" y="0px"
	 width="349.726px" height="64.251px" viewBox="0 0 349.726 64.251" enable-background="new 0 0 349.726 64.251"
	 xml:space="preserve">
<g>
	<g>
		<path fill="#C35B00" d="M63.399,63.998v-0.936c1.387,0,2.079-0.453,2.079-1.359v-9.74c0-1.174-0.723-1.762-2.169-1.762v-0.98
			h7.827v0.98c-1.327,0-1.99,0.588-1.99,1.762v9.74c0,0.906,0.7,1.359,2.103,1.359v0.936H63.399z"/>
		<path fill="#C35B00" d="M75.975,49.279h1.561l9.3,11.797V49.279h1.623v14.719H87.13L77.598,51.93v12.068h-1.623V49.279z"/>
		<path fill="#C35B00" d="M91.585,49.279h1.855l5.251,12.68l5.272-12.68h1.792l-6.348,14.824h-1.476L91.585,49.279z"/>
		<path fill="#C35B00" d="M108.883,49.279h10.67v1.515h-9.004v5.025h8.055v1.514h-8.055v5.151h9.109v1.514h-10.775V49.279z"/>
		<path fill="#C35B00" d="M123.227,49.279h1.561l9.3,11.797V49.279h1.623v14.719h-1.328L124.85,51.93v12.068h-1.623V49.279z"/>
		<path fill="#C35B00" d="M144.004,50.814h-4.956v-1.535h11.599v1.535h-4.956v13.184h-1.687V50.814z"/>
		<path fill="#C35B00" d="M157.546,49.175h1.56l6.728,14.823h-1.793l-1.729-3.89h-8.034l-1.751,3.89h-1.708L157.546,49.175z
			 M161.657,58.615l-3.353-7.506l-3.374,7.506H161.657z M159.76,45.054l1.666,0.757l-2.425,1.955h-1.35L159.76,45.054z"/>
		<path fill="#C35B00" d="M168.96,49.279h6.346c1.814,0,3.27,0.547,4.197,1.473c0.717,0.715,1.139,1.745,1.139,2.901v0.042
			c0,2.439-1.688,3.869-4.006,4.289l4.533,6.014h-2.045l-4.281-5.719h-4.217v5.719h-1.666V49.279z M175.16,56.787
			c2.215,0,3.795-1.137,3.795-3.028v-0.042c0-1.809-1.391-2.902-3.773-2.902h-4.555v5.973H175.16z"/>
		<path fill="#C35B00" d="M184.57,49.279h1.666v14.719h-1.666V49.279z"/>
		<path fill="#C35B00" d="M190.117,56.682v-0.043c0-4.058,3.059-7.611,7.551-7.611c4.49,0,7.506,3.512,7.506,7.57v0.041
			c0,4.059-3.057,7.612-7.549,7.612S190.117,60.739,190.117,56.682z M203.445,56.682v-0.043c0-3.343-2.445-6.076-5.82-6.076
			c-3.373,0-5.777,2.691-5.777,6.035v0.041c0,3.344,2.445,6.077,5.82,6.077C201.041,62.716,203.445,60.024,203.445,56.682z"/>
		<path fill="#C35B00" d="M220.078,63.998v-0.936c1.283,0,1.924-0.543,1.924-1.627v-9.473c0-1.174-0.693-1.762-2.08-1.762v-0.98
			h12.568l0.381,4.279l-1.477,0.135c-0.135-0.729-0.324-1.308-0.57-1.738c-0.246-0.432-0.551-0.751-0.916-0.959
			s-0.803-0.342-1.309-0.401c-0.508-0.06-1.082-0.089-1.723-0.089c-0.805,0-1.207,0.252-1.207,0.754v3.818
			c0,0.459,0.373,0.688,1.117,0.688c0.373,0,0.676-0.033,0.906-0.1c0.23-0.067,0.418-0.186,0.559-0.357
			c0.143-0.17,0.25-0.4,0.324-0.691c0.076-0.289,0.158-0.656,0.246-1.103h1.209v5.862h-1.23v-0.558c0-0.179-0.023-0.375-0.066-0.591
			c-0.045-0.215-0.15-0.416-0.314-0.602s-0.41-0.338-0.738-0.457s-0.768-0.178-1.318-0.178c-0.283,0-0.471,0.044-0.559,0.133
			c-0.09,0.09-0.135,0.216-0.135,0.379v3.99c0,1.084,0.76,1.627,2.281,1.627v0.936H220.078z"/>
		<path fill="#C35B00" d="M237.126,49.279h1.666v13.184h8.309v1.535h-9.975V49.279z"/>
		<path fill="#C35B00" d="M248.896,56.682v-0.043c0-4.058,3.059-7.611,7.551-7.611c4.49,0,7.506,3.512,7.506,7.57v0.041
			c0,4.059-3.057,7.612-7.549,7.612S248.896,60.739,248.896,56.682z M262.224,56.682v-0.043c0-3.343-2.445-6.076-5.82-6.076
			c-3.373,0-5.777,2.691-5.777,6.035v0.041c0,3.344,2.445,6.077,5.82,6.077C259.82,62.716,262.224,60.024,262.224,56.682z"/>
		<path fill="#C35B00" d="M267.693,49.279h6.346c1.814,0,3.27,0.547,4.197,1.473c0.717,0.715,1.139,1.745,1.139,2.901v0.042
			c0,2.439-1.688,3.869-4.006,4.289l4.533,6.014h-2.045l-4.281-5.719h-4.217v5.719h-1.666V49.279z M273.892,56.787
			c2.215,0,3.795-1.137,3.795-3.028v-0.042c0-1.809-1.391-2.902-3.773-2.902h-4.555v5.973H273.892z"/>
		<path fill="#C35B00" d="M283.154,49.279h10.67v1.515h-9.004v5.025h8.055v1.514h-8.055v5.151h9.109v1.514h-10.775V49.279z"/>
		<path fill="#C35B00" d="M296.529,61.854l1.033-1.219c1.539,1.387,3.016,2.081,5.061,2.081c1.982,0,3.291-1.052,3.291-2.502v-0.042
			c0-1.367-0.738-2.145-3.838-2.797c-3.396-0.736-4.957-1.829-4.957-4.247v-0.042c0-2.312,2.047-4.016,4.852-4.016
			c2.15,0,3.689,0.609,5.188,1.808l-0.971,1.282c-1.371-1.114-2.742-1.598-4.26-1.598c-1.92,0-3.143,1.051-3.143,2.376v0.042
			c0,1.388,0.76,2.166,4.008,2.859c3.289,0.715,4.807,1.914,4.807,4.164v0.041c0,2.523-2.107,4.164-5.039,4.164
			C300.218,64.209,298.3,63.431,296.529,61.854z"/>
		<path fill="#C35B00" d="M314.796,50.814h-4.957v-1.535h11.6v1.535h-4.957v13.184h-1.686V50.814z"/>
		<path fill="#C35B00" d="M328.337,49.175h1.561l6.727,14.823h-1.793l-1.729-3.89h-8.033l-1.752,3.89h-1.707L328.337,49.175z
			 M332.449,58.615l-3.352-7.506l-3.375,7.506H332.449z"/>
		<path fill="#C35B00" d="M339.751,49.279h1.666v13.184h8.309v1.535h-9.975V49.279z"/>
	</g>
	<g>
		<path fill="#C35B00" d="M45.197,53.02V36.914H28.42V53.02c0,6.424-1.865,7.664-9.639,8.389v2.59h36.264v-2.59
			C47.166,60.893,45.197,59.752,45.197,53.02z"/>
		<path fill="#8DC243" d="M18.781,27.83v-2.591h36.264v2.591c-7.664,0.308-9.848,1.972-9.848,7.769v1.315h28.627
			C73.824,16.529,57.297,0,36.913,0C16.523,0,0,16.529,0,36.914h28.42v-1.315C28.42,29.802,26.238,28.354,18.781,27.83z"/>
	</g>
</g>
</svg>
