<?xml version="1.0" encoding="utf-8"?>
<!-- Generator: Adobe Illustrator 16.0.0, SVG Export Plug-In . SVG Version: 6.00 Build 0)  -->
<!DOCTYPE svg PUBLIC "-//W3C//DTD SVG 1.1//EN" "http://www.w3.org/Graphics/SVG/1.1/DTD/svg11.dtd">
<svg version="1.1" id="Layer_1" xmlns="http://www.w3.org/2000/svg" xmlns:xlink="http://www.w3.org/1999/xlink" x="0px" y="0px"
	 width="933.507px" height="126.508px" viewBox="0 0 933.507 126.508" enable-background="new 0 0 933.507 126.508"
	 xml:space="preserve">
<g>
	<g>
		<path fill="#339933" d="M56.856,80.073H25.412v44.242H0V13.345C0,6.216,5.667,0,12.797,0h42.23
			c26.326,0,40.037,14.077,40.037,40.037C95.064,64.534,81.719,80.073,56.856,80.073z M50.457,57.587
			c12.797,0.183,19.196-5.85,19.196-17.916S63.62,21.572,51.737,21.572H25.777v36.015H50.457z"/>
		<path fill="#339933" d="M106.398,74.406c0.731-31.261,17.368-46.801,49.726-46.801h3.473v25.229h-8.227
			c-13.528,0-20.292,7.13-20.292,21.206v50.275h-24.68V74.406z"/>
		<path fill="#339933" d="M258.137,76.417c0,33.272-14.808,50.092-44.059,50.092s-43.875-16.819-43.875-50.092
			c0-33.638,14.625-50.274,43.875-50.274S258.137,42.779,258.137,76.417z M194.882,76.417c0.183,18.83,6.582,28.337,19.013,28.337
			c12.431,0,18.647-9.872,18.83-29.067c0-18.831-6.216-28.154-18.647-28.154C201.281,47.532,194.882,57.221,194.882,76.417z"/>
		<path fill="#006600" d="M330.166,69.287h-35.284v55.028h-25.045V13.345C269.836,6.216,275.504,0,282.634,0h77.148v21.572h-64.9
			v26.691h48.629v8.227C343.511,63.62,337.296,69.287,330.166,69.287z"/>
		<path fill="#006600" d="M395.065,11.883v112.432h-24.314V0h12.614C389.764,0,395.065,5.484,395.065,11.883z"/>
		<path fill="#006600" d="M495.98,76.417c0,33.272-14.809,50.092-44.059,50.092c-29.25,0-43.876-16.819-43.876-50.092
			c0-33.638,14.626-50.274,43.876-50.274C481.171,26.143,495.98,42.779,495.98,76.417z M432.726,76.417
			c0.183,18.83,6.581,28.337,19.013,28.337s18.648-9.872,18.83-29.067c0-18.831-6.215-28.154-18.647-28.154
			C439.124,47.532,432.726,57.221,432.726,76.417z"/>
		<path fill="#006600" d="M507.679,74.406c0.73-31.261,17.367-46.801,49.725-46.801h3.475v25.229h-8.227
			c-13.529,0-20.293,7.13-20.293,21.206v50.275h-24.68V74.406z"/>
		<path fill="#006600" d="M615.359,126.508c-29.25-0.914-43.877-17.916-43.877-50.822c0-32.907,14.809-49.361,44.242-49.543
			c30.713,0,45.156,18.83,43.328,56.672h-62.523c0.914,14.809,7.312,22.304,19.195,22.304c5.668,0,10.969-2.376,15.723-6.946
			c2.193-2.377,4.936-3.475,8.227-3.475h17.916C652.287,115.174,639.125,126.508,615.359,126.508z M596.894,65.448h36.381
			c-1.463-12.797-7.496-19.378-17.916-19.378C604.937,46.069,598.722,52.651,596.894,65.448z"/>
		<path fill="#006600" d="M712.617,106.764c10.236,0,15.355-2.925,15.355-9.141c0-4.936-8.408-8.958-25.045-11.883
			c-21.389-3.84-32.359-13.346-32.541-28.52c0-20.841,16.453-30.713,38.574-31.079c12.432,0,22.303,2.742,29.615,8.227
			c7.131,5.667,10.969,13.528,11.518,23.583h-15.355c-5.668-0.183-9.324-2.194-10.787-6.033c-1.645-4.205-6.582-6.581-14.625-6.581
			c-9.506,0-14.26,2.559-14.26,7.495s6.215,8.775,18.83,11.152c16.453,3.291,27.24,7.496,32.541,12.431
			c4.57,4.754,6.764,10.604,6.764,17.186c0,23.766-18.646,32.541-44.24,32.541c-13.529,0-23.766-2.926-30.348-8.593
			c-7.312-5.484-10.969-13.894-10.969-25.046h24.863C693.054,103.108,700.734,106.764,712.617,106.764z"/>
		<path fill="#006600" d="M790.679,44.973h-2.561v53.565c0,4.021,2.377,6.216,7.131,6.216h7.494v18.464
			c-7.859,0.731-16.453,0.731-25.594-0.183s-13.527-6.581-13.346-17.367V0h12.615c6.398,0,11.699,5.85,11.699,12.249v15.356h14.625
			v5.302C802.744,39.854,797.443,44.973,790.679,44.973z"/>
		<path fill="#006600" d="M838.029,52.833h-24.314c2.924-17.916,15.539-26.691,37.842-26.691c26.691,0,40.221,8.775,40.768,26.691
			v32.907c0,26.691-16.088,38.574-42.23,40.402c-23.217,1.828-39.305-8.959-39.305-30.348c0.549-23.218,17.367-29.434,41.865-31.81
			c10.42-1.28,15.723-4.388,15.723-9.689c-0.549-5.484-5.668-8.227-15.723-8.227C844.062,46.069,839.308,48.263,838.029,52.833z
			 M868.742,84.643v-8.957c-5.668,2.376-12.25,4.387-19.379,5.85c-9.689,1.828-14.625,6.398-14.625,13.528
			c0.549,7.679,4.57,11.335,12.248,11.335C860.515,106.399,868.742,98.354,868.742,84.643z"/>
	</g>
	<g>
		<path fill="#848984" d="M933.507,19.638c0,10.5-8.242,18.741-18.967,18.741c-10.613,0-19.08-8.242-19.08-18.741
			c0-10.274,8.467-18.516,19.08-18.516C925.265,1.123,933.507,9.364,933.507,19.638z M900.203,19.638
			c0,8.242,6.096,14.79,14.451,14.79c8.127,0,14.111-6.548,14.111-14.677c0-8.242-5.984-14.903-14.225-14.903
			C906.298,4.848,900.203,11.509,900.203,19.638z M911.605,29.348h-4.291V10.832c1.693-0.339,4.064-0.564,7.113-0.564
			c3.5,0,5.08,0.564,6.436,1.355c1.016,0.79,1.807,2.258,1.807,4.064c0,2.032-1.582,3.613-3.84,4.291v0.226
			c1.807,0.677,2.822,2.032,3.387,4.516c0.564,2.822,0.904,3.952,1.355,4.629h-4.629c-0.564-0.677-0.902-2.371-1.467-4.516
			c-0.34-2.032-1.469-2.936-3.84-2.936h-2.031V29.348z M911.718,18.848h2.031c2.371,0,4.291-0.791,4.291-2.71
			c0-1.693-1.242-2.822-3.951-2.822c-1.131,0-1.92,0.113-2.371,0.226V18.848z"/>
	</g>
</g>
</svg>
