<?xml version="1.0" encoding="utf-8"?>
<!-- Generator: Adobe Illustrator 16.0.0, SVG Export Plug-In . SVG Version: 6.00 Build 0)  -->
<!DOCTYPE svg PUBLIC "-//W3C//DTD SVG 1.1//EN" "http://www.w3.org/Graphics/SVG/1.1/DTD/svg11.dtd">
<svg version="1.1" id="Layer_1" xmlns="http://www.w3.org/2000/svg" xmlns:xlink="http://www.w3.org/1999/xlink" x="0px" y="0px"
	 width="139.555px" height="170.569px" viewBox="0 0 139.555 170.569" enable-background="new 0 0 139.555 170.569"
	 xml:space="preserve">
<g>
	<g>
		<path fill="#C35B00" d="M0.088,143.083v-0.98c1.365,0,2.046-0.475,2.046-1.424v-10.205c0-1.23-0.711-1.846-2.134-1.846V127.6
			h7.699v1.027c-1.305,0-1.957,0.615-1.957,1.846v10.205c0,0.949,0.688,1.424,2.068,1.424v0.98H0.088z"/>
		<path fill="#C35B00" d="M12.459,127.661h1.535l9.148,12.361v-12.361h1.597v15.422h-1.307l-9.377-12.645v12.645h-1.597V127.661z"/>
		<path fill="#C35B00" d="M27.814,127.661h1.826l5.165,13.285l5.187-13.285h1.764l-6.244,15.533H34.06L27.814,127.661z"/>
		<path fill="#C35B00" d="M44.832,127.661h10.496v1.588h-8.857v5.266h7.924v1.586h-7.924v5.396h8.961v1.586h-10.6V127.661z"/>
		<path fill="#C35B00" d="M58.941,127.661h1.535l9.148,12.361v-12.361h1.597v15.422h-1.307l-9.377-12.645v12.645h-1.597V127.661z"/>
		<path fill="#C35B00" d="M79.381,129.27h-4.875v-1.609h11.409v1.609h-4.876v13.812h-1.658V129.27z"/>
		<path fill="#C35B00" d="M92.702,127.551h1.534l6.618,15.531h-1.764l-1.7-4.076h-7.904l-1.722,4.076h-1.681L92.702,127.551z
			 M96.746,137.442l-3.297-7.863l-3.32,7.863H96.746z M94.88,123.233l1.64,0.793l-2.386,2.049h-1.327L94.88,123.233z"/>
		<path fill="#C35B00" d="M103.931,127.661h6.243c1.785,0,3.217,0.572,4.129,1.543c0.705,0.75,1.12,1.828,1.12,3.041v0.043
			c0,2.557-1.66,4.055-3.941,4.494l4.46,6.301h-2.012l-4.213-5.992h-4.147v5.992h-1.639V127.661z M110.029,135.528
			c2.178,0,3.733-1.191,3.733-3.174v-0.043c0-1.896-1.368-3.041-3.713-3.041h-4.48v6.258H110.029z"/>
		<path fill="#C35B00" d="M119.285,127.661h1.64v15.422h-1.64V127.661z"/>
		<path fill="#C35B00" d="M124.743,135.417v-0.045c0-4.252,3.008-7.975,7.427-7.975c4.418,0,7.385,3.68,7.385,7.932v0.043
			c0,4.252-3.008,7.977-7.426,7.977C127.71,143.348,124.743,139.668,124.743,135.417z M137.854,135.417v-0.045
			c0-3.502-2.407-6.367-5.726-6.367c-3.319,0-5.684,2.82-5.684,6.324v0.043c0,3.504,2.406,6.367,5.725,6.367
			C135.489,141.739,137.854,138.918,137.854,135.417z"/>
	</g>
	<g>
		<path fill="#C35B00" d="M6.085,170.305v-0.98c1.261,0,1.893-0.57,1.893-1.705v-9.926c0-1.23-0.683-1.846-2.046-1.846v-1.027
			h12.363l0.373,4.484l-1.451,0.141c-0.133-0.764-0.318-1.369-0.561-1.82c-0.242-0.453-0.543-0.787-0.902-1.006
			c-0.359-0.217-0.789-0.357-1.287-0.42c-0.499-0.062-1.063-0.094-1.693-0.094c-0.792,0-1.189,0.264-1.189,0.791v4
			c0,0.48,0.367,0.721,1.101,0.721c0.367,0,0.663-0.035,0.892-0.105c0.227-0.07,0.41-0.193,0.549-0.373
			c0.14-0.18,0.246-0.42,0.319-0.725c0.074-0.303,0.155-0.688,0.242-1.156h1.188v6.143h-1.211v-0.584
			c0-0.188-0.021-0.393-0.064-0.619c-0.045-0.225-0.147-0.436-0.309-0.631c-0.162-0.193-0.404-0.354-0.727-0.479
			s-0.755-0.186-1.298-0.186c-0.278,0-0.462,0.045-0.55,0.139s-0.133,0.227-0.133,0.396v4.182c0,1.135,0.749,1.705,2.244,1.705v0.98
			H6.085z"/>
		<path fill="#C35B00" d="M22.855,154.883h1.64v13.812h8.173v1.609h-9.812V154.883z"/>
		<path fill="#C35B00" d="M34.434,162.639v-0.045c0-4.252,3.008-7.977,7.428-7.977c4.418,0,7.385,3.68,7.385,7.934v0.043
			c0,4.252-3.008,7.975-7.427,7.975S34.434,166.889,34.434,162.639z M47.545,162.639v-0.045c0-3.504-2.406-6.367-5.726-6.367
			s-5.685,2.82-5.685,6.324v0.043c0,3.502,2.407,6.367,5.727,6.367C45.18,168.961,47.545,166.141,47.545,162.639z"/>
		<path fill="#C35B00" d="M52.924,154.883h6.244c1.784,0,3.215,0.572,4.129,1.543c0.705,0.748,1.119,1.828,1.119,3.039v0.045
			c0,2.555-1.66,4.053-3.941,4.492l4.461,6.303h-2.014l-4.211-5.992h-4.148v5.992h-1.639V154.883z M59.021,162.749
			c2.18,0,3.734-1.191,3.734-3.172v-0.045c0-1.895-1.369-3.041-3.713-3.041h-4.48v6.258H59.021z"/>
		<path fill="#C35B00" d="M68.135,154.883h10.496v1.586h-8.857v5.266h7.923v1.586h-7.923v5.398h8.961v1.586h-10.6V154.883z"/>
		<path fill="#C35B00" d="M81.291,168.057l1.017-1.277c1.515,1.453,2.966,2.182,4.978,2.182c1.951,0,3.237-1.104,3.237-2.621v-0.045
			c0-1.432-0.727-2.246-3.775-2.93c-3.341-0.771-4.876-1.918-4.876-4.451v-0.043c0-2.424,2.014-4.209,4.771-4.209
			c2.116,0,3.631,0.639,5.104,1.895l-0.955,1.344c-1.348-1.168-2.696-1.674-4.189-1.674c-1.889,0-3.092,1.102-3.092,2.49v0.043
			c0,1.455,0.747,2.27,3.942,2.996c3.235,0.75,4.729,2.006,4.729,4.363v0.043c0,2.645-2.074,4.363-4.958,4.363
			C84.921,170.526,83.033,169.709,81.291,168.057z"/>
		<path fill="#C35B00" d="M99.261,156.491h-4.876v-1.607h11.41v1.607h-4.875v13.814h-1.659V156.491z"/>
		<path fill="#C35B00" d="M112.582,154.774h1.535l6.617,15.531h-1.764l-1.701-4.076h-7.902l-1.723,4.076h-1.681L112.582,154.774z
			 M116.627,164.665l-3.299-7.865l-3.318,7.865H116.627z"/>
		<path fill="#C35B00" d="M123.811,154.883h1.639v13.812h8.174v1.609h-9.812V154.883z"/>
	</g>
</g>
<g>
	<path fill="#C35B00" d="M82.981,84.501V58.832H56.243v25.669c0,10.238-2.973,12.214-15.363,13.369v4.129h57.797V97.87
		C86.12,97.049,82.981,95.231,82.981,84.501z"/>
	<path fill="#8DC243" d="M40.88,44.354v-4.129h57.797v4.129c-12.215,0.49-15.695,3.143-15.695,12.382v2.096h45.625
		C128.606,26.344,102.265,0,69.778,0c-32.496,0-58.83,26.344-58.83,58.832h45.295v-2.096C56.243,47.497,52.765,45.188,40.88,44.354z
		"/>
</g>
</svg>
