<?xml version="1.0" encoding="utf-8"?>
<!-- Generator: Adobe Illustrator 16.0.0, SVG Export Plug-In . SVG Version: 6.00 Build 0)  -->
<!DOCTYPE svg PUBLIC "-//W3C//DTD SVG 1.1//EN" "http://www.w3.org/Graphics/SVG/1.1/DTD/svg11.dtd">
<svg version="1.1" id="Layer_1" xmlns="http://www.w3.org/2000/svg" xmlns:xlink="http://www.w3.org/1999/xlink" x="0px" y="0px"
	 width="219.939px" height="80.799px" viewBox="0 0 219.939 80.799" enable-background="new 0 0 219.939 80.799"
	 xml:space="preserve">
<g>
	<g>
		<polygon fill-rule="evenodd" clip-rule="evenodd" fill="#FFFFFF" points="12.475,30.309 18.713,33.914 24.951,37.521 
			24.951,44.73 24.951,51.94 18.713,55.546 12.475,59.151 6.236,55.546 0,51.94 0,44.73 0,37.521 6.236,33.914 		"/>
		<polygon fill-rule="evenodd" clip-rule="evenodd" fill="#FFFFFF" points="54.968,51.933 61.213,55.541 67.457,59.149 
			67.457,66.366 67.457,73.583 61.213,77.19 54.968,80.799 48.723,77.19 42.478,73.583 42.478,66.366 42.478,59.149 48.723,55.541 
					"/>
		<polygon fill-rule="evenodd" clip-rule="evenodd" fill="#FFFFFF" points="54.961,0 62.46,4.325 69.957,8.65 69.957,17.302 
			69.957,25.953 62.46,30.278 54.961,34.604 47.463,30.278 39.965,25.953 39.965,17.302 39.965,8.65 47.463,4.325 		"/>
		<polygon fill-rule="evenodd" clip-rule="evenodd" fill="#FFFFFF" points="64.981,31.769 69.988,34.649 74.994,37.529 
			74.994,43.288 74.994,49.048 69.988,51.929 64.981,54.808 59.975,51.929 54.969,49.048 54.969,43.288 54.969,37.529 
			59.975,34.649 		"/>
		<polygon fill-rule="evenodd" clip-rule="evenodd" fill="#FFFFFF" points="32.49,56.296 36.25,58.453 40.009,60.611 40.009,64.927 
			40.009,69.243 36.25,71.401 32.49,73.561 28.732,71.401 24.974,69.243 24.974,64.927 24.974,60.611 28.732,58.453 		"/>
		<polygon fill-rule="evenodd" clip-rule="evenodd" fill="#FFFFFF" points="24.975,11.567 29.967,14.448 34.958,17.328 
			34.958,23.089 34.958,28.85 29.967,31.73 24.975,34.611 19.983,31.73 14.992,28.85 14.992,23.089 14.992,17.328 19.983,14.448 		
			"/>
	</g>
	<path fill-rule="evenodd" clip-rule="evenodd" fill="#FFFFFF" d="M85.032,17.632v26.182c0,14.902,6.895,21.529,18.732,21.529
		c12.255,0,19.567-6.905,19.567-21.39V17.632h-10.585V44.58c0,8.356-3.064,12.256-8.635,12.256c-5.361,0-8.495-4.108-8.495-12.256
		V17.632H85.032L85.032,17.632z M139.047,64.565h10.584V45.694h16.852V37.06h-16.852V26.336h18.035v-8.704h-28.619V64.565
		L139.047,64.565z M219.939,37.756h-17.479v8.286h7.242v9.818c-0.835,0.349-2.785,0.627-5.152,0.627
		c-8.705,0-14.833-5.605-14.833-15.319c0-10.213,6.755-15.25,15.599-15.25c5.153,0,8.286,0.836,10.862,2.031l2.229-8.646
		c-2.298-0.975-6.963-2.159-13.021-2.159c-15.389,0-26.739,8.914-26.81,24.582c0,6.871,2.368,12.963,6.616,17.06
		c4.316,4.108,10.515,6.278,19.079,6.278c6.198,0,12.396-1.543,15.668-2.657V37.756z"/>
</g>
</svg>
