<?xml version="1.0" encoding="utf-8"?>
<!-- Generator: Adobe Illustrator 16.0.0, SVG Export Plug-In . SVG Version: 6.00 Build 0)  -->
<!DOCTYPE svg PUBLIC "-//W3C//DTD SVG 1.1//EN" "http://www.w3.org/Graphics/SVG/1.1/DTD/svg11.dtd">
<svg version="1.1" id="Layer_1" xmlns="http://www.w3.org/2000/svg" xmlns:xlink="http://www.w3.org/1999/xlink" x="0px" y="0px"
	 width="210.804px" height="108.263px" viewBox="0 0 210.804 108.263" enable-background="new 0 0 210.804 108.263"
	 xml:space="preserve">
<g>
	<g>
		<polygon fill-rule="evenodd" clip-rule="evenodd" fill="#FFFFFF" points="16.684,40.747 25.025,45.567 33.367,50.389 
			33.367,60.03 33.367,69.672 25.025,74.493 16.684,79.314 8.342,74.493 0,69.672 0,60.03 0,50.389 8.342,45.567 		"/>
		<polygon fill-rule="evenodd" clip-rule="evenodd" fill="#FFFFFF" points="73.507,69.662 81.856,74.487 90.208,79.312 
			90.208,88.963 90.208,98.612 81.856,103.438 73.507,108.263 65.155,103.438 56.804,98.612 56.804,88.963 56.804,79.312 
			65.155,74.487 		"/>
		<polygon fill-rule="evenodd" clip-rule="evenodd" fill="#FFFFFF" points="73.164,0 83.191,5.785 93.219,11.569 93.219,23.138 
			93.219,34.707 83.191,40.49 73.164,46.274 63.138,40.49 53.11,34.707 53.11,23.138 53.11,11.569 63.138,5.785 		"/>
		<polygon fill-rule="evenodd" clip-rule="evenodd" fill="#FFFFFF" points="86.897,42.699 93.592,46.549 100.286,50.4 
			100.286,58.104 100.286,65.805 93.592,69.656 86.897,73.507 80.202,69.656 73.508,65.805 73.508,58.104 73.508,50.4 
			80.202,46.549 		"/>
		<polygon fill-rule="evenodd" clip-rule="evenodd" fill="#FFFFFF" points="43.45,75.496 48.476,78.382 53.502,81.268 
			53.502,87.039 53.502,92.811 48.476,95.697 43.45,98.582 38.424,95.697 33.396,92.811 33.396,87.039 33.396,81.268 38.424,78.382 
					"/>
		<polygon fill-rule="evenodd" clip-rule="evenodd" fill="#FFFFFF" points="33.399,15.684 40.074,19.536 46.749,23.388 
			46.749,31.092 46.749,38.795 40.074,42.647 33.399,46.498 26.726,42.647 20.05,38.795 20.05,31.092 20.05,23.388 26.726,19.536 		
			"/>
	</g>
	<path fill="#FFFFFF" d="M111.876,21.906v19.131c0.009,3.621,0.551,6.598,1.628,8.912c1.077,2.324,2.629,4.045,4.665,5.156
		c2.034,1.11,4.502,1.662,7.395,1.653c2.993,0,5.554-0.559,7.691-1.695c2.127-1.137,3.756-2.857,4.893-5.173
		c1.128-2.307,1.704-5.224,1.712-8.751V21.906h-7.732v19.691c-0.009,3.044-0.552,5.3-1.628,6.767
		c-1.077,1.467-2.638,2.196-4.682,2.188c-1.976,0-3.494-0.746-4.57-2.247c-1.077-1.492-1.62-3.731-1.638-6.707V21.906H111.876
		L111.876,21.906z M151.343,56.199h7.734V42.411h12.312v-6.31h-12.312v-7.835h13.177v-6.36h-20.911V56.199L151.343,56.199z
		 M210.449,36.61h-12.771v6.055h5.292v7.174c-0.314,0.136-0.806,0.237-1.46,0.322c-0.66,0.085-1.432,0.136-2.306,0.136
		c-1.594,0-3.052-0.254-4.376-0.746c-1.322-0.501-2.468-1.23-3.426-2.188c-0.967-0.957-1.713-2.129-2.238-3.519
		c-0.525-1.382-0.789-2.959-0.797-4.74c0.008-1.865,0.297-3.493,0.873-4.884c0.568-1.399,1.373-2.561,2.4-3.485
		c1.034-0.925,2.237-1.62,3.62-2.086c1.374-0.458,2.884-0.687,4.503-0.687c1.247,0,2.357,0.068,3.316,0.187
		c0.957,0.127,1.814,0.305,2.561,0.525c0.754,0.221,1.441,0.476,2.061,0.772l1.628-6.318c-0.56-0.246-1.306-0.483-2.23-0.729
		c-0.924-0.237-1.992-0.441-3.222-0.602c-1.23-0.152-2.578-0.237-4.062-0.246c-2.824,0-5.427,0.398-7.793,1.196
		c-2.374,0.796-4.443,1.958-6.198,3.493c-1.755,1.534-3.121,3.409-4.097,5.631c-0.975,2.229-1.475,4.774-1.5,7.64
		c0,1.678,0.186,3.282,0.567,4.799c0.373,1.518,0.916,2.925,1.636,4.223c0.713,1.289,1.596,2.443,2.631,3.444
		c1.568,1.5,3.501,2.645,5.809,3.417c2.298,0.771,5.011,1.162,8.132,1.162c1.526-0.008,3.011-0.118,4.451-0.322
		c1.442-0.203,2.765-0.449,3.97-0.746c1.212-0.297,2.222-0.585,3.027-0.865V36.61z"/>
	<g>
		<path fill-rule="evenodd" clip-rule="evenodd" fill="#FFFFFF" d="M111.805,67.832v4.334c0,2.467,1.142,3.564,3.102,3.564
			c2.029,0,3.238-1.144,3.238-3.541v-4.357h-1.752v4.461c0,1.383-0.507,2.029-1.429,2.029c-0.888,0-1.406-0.681-1.406-2.029v-4.461
			H111.805L111.805,67.832z M123.225,75.602v-2.34c0-1.269-0.023-2.363-0.08-3.4h0.046c0.368,0.91,0.888,1.901,1.349,2.743
			l1.66,2.997h1.844v-7.77h-1.613v2.26c0,1.176,0.034,2.225,0.139,3.25h-0.023c-0.357-0.876-0.807-1.844-1.268-2.662l-1.615-2.848
			h-2.052v7.77H123.225L123.225,75.602z M131.521,67.832v7.77h1.752v-7.77H131.521L131.521,67.832z M140.623,75.602l2.616-7.77
			h-1.867l-0.991,3.32c-0.265,0.888-0.507,1.81-0.703,2.743h-0.035c-0.184-0.968-0.426-1.845-0.69-2.778l-0.946-3.285h-1.925
			l2.49,7.77H140.623L140.623,75.602z M150.637,70.887h-2.859v-1.614h3.032v-1.44h-4.784v7.77h4.945V74.16h-3.193v-1.844h2.859
			V70.887L150.637,70.887z M154.113,75.602h1.741v-3.066h0.519c0.727,0.012,1.061,0.265,1.279,1.249
			c0.219,0.961,0.416,1.599,0.53,1.817h1.799c-0.149-0.302-0.381-1.32-0.622-2.209c-0.197-0.719-0.496-1.227-1.038-1.445v-0.035
			c0.669-0.241,1.372-0.92,1.372-1.896c0-0.71-0.254-1.25-0.727-1.619c-0.554-0.449-1.36-0.622-2.514-0.622
			c-0.945,0-1.775,0.069-2.34,0.173V75.602L154.113,75.602z M155.854,69.146c0.126-0.035,0.368-0.058,0.795-0.058
			c0.808,0,1.292,0.366,1.292,1.066c0,0.676-0.52,1.112-1.396,1.112h-0.691V69.146L155.854,69.146z M162.594,75.244
			c0.438,0.242,1.314,0.486,2.201,0.486c2.133,0,3.125-1.108,3.125-2.411c0-1.107-0.635-1.821-2.006-2.329
			c-1.015-0.392-1.441-0.61-1.441-1.106c0-0.392,0.369-0.749,1.13-0.749c0.749,0,1.314,0.219,1.614,0.369l0.392-1.407
			c-0.462-0.219-1.095-0.392-1.983-0.392c-1.82,0-2.939,1.003-2.939,2.328c0,1.142,0.854,1.856,2.145,2.317
			c0.934,0.323,1.303,0.611,1.303,1.084c0,0.519-0.427,0.853-1.233,0.853c-0.749,0-1.487-0.242-1.948-0.484L162.594,75.244
			L162.594,75.244z M171.074,67.832v7.77h1.752v-7.77H171.074L171.074,67.832z M176.292,75.566c0.427,0.061,1.083,0.117,1.994,0.117
			c1.521,0,2.778-0.324,3.597-1.004c0.737-0.635,1.279-1.66,1.279-3.147c0-1.384-0.508-2.352-1.314-2.951
			c-0.737-0.564-1.706-0.807-3.193-0.807c-0.876,0-1.717,0.058-2.362,0.173V75.566L176.292,75.566z M178.044,69.192
			c0.149-0.034,0.415-0.069,0.795-0.069c1.522,0,2.468,0.795,2.468,2.467c0,1.856-1.049,2.732-2.652,2.721
			c-0.207,0-0.461,0-0.61-0.035V69.192L178.044,69.192z M190.294,73.607l0.599,1.994h1.891l-2.42-7.77h-2.295l-2.374,7.77h1.821
			l0.541-1.994H190.294L190.294,73.607z M188.311,72.293l0.473-1.648c0.115-0.449,0.242-1.037,0.346-1.498h0.035
			c0.115,0.449,0.254,1.037,0.381,1.498l0.483,1.648H188.311L188.311,72.293z M195.766,75.566c0.426,0.061,1.083,0.117,1.994,0.117
			c1.521,0,2.777-0.324,3.596-1.004c0.738-0.635,1.28-1.66,1.28-3.147c0-1.384-0.508-2.352-1.314-2.951
			c-0.737-0.564-1.706-0.807-3.193-0.807c-0.876,0-1.718,0.058-2.362,0.173V75.566L195.766,75.566z M197.518,69.192
			c0.149-0.034,0.415-0.069,0.795-0.069c1.522,0,2.467,0.795,2.467,2.467c0,1.856-1.049,2.732-2.651,2.721
			c-0.207,0-0.461,0-0.61-0.035V69.192L197.518,69.192z M210.355,70.887h-2.859v-1.614h3.031v-1.44h-4.783v7.77h4.945V74.16h-3.193
			v-1.844h2.859V70.887z"/>
		<path fill-rule="evenodd" clip-rule="evenodd" fill="#FFFFFF" d="M111.777,87.107h1.753v-3.124h2.789v-1.429h-2.789v-1.775h2.985
			v-1.441h-4.738V87.107L111.777,87.107z M122.137,82.393h-2.858v-1.613h3.031v-1.441h-4.783v7.77h4.945v-1.441h-3.193v-1.844h2.858
			V82.393L122.137,82.393z M123.67,87.073c0.427,0.06,1.084,0.117,1.994,0.117c1.522,0,2.784-0.318,3.597-1.005
			c0.743-0.628,1.28-1.66,1.28-3.147c0-1.383-0.512-2.346-1.314-2.95c-0.742-0.56-1.706-0.808-3.193-0.808
			c-0.876,0-1.718,0.058-2.363,0.173V87.073L123.67,87.073z M125.423,80.698c0.149-0.034,0.414-0.069,0.795-0.069
			c1.521,0,2.468,0.795,2.468,2.467c0,1.856-1.05,2.731-2.652,2.721c-0.207-0.001-0.461,0-0.61-0.034V80.698L125.423,80.698z
			 M136.316,82.393h-2.859v-1.613h3.032v-1.441h-4.784v7.77h4.945v-1.441h-3.193v-1.844h2.859V82.393L136.316,82.393z
			 M137.85,87.107h1.74v-3.066h0.52c0.727,0,1.058,0.266,1.279,1.249c0.217,0.961,0.415,1.599,0.53,1.817h1.798
			c-0.149-0.302-0.38-1.319-0.622-2.209c-0.195-0.719-0.496-1.226-1.038-1.445v-0.034c0.669-0.242,1.372-0.921,1.372-1.896
			c0-0.711-0.257-1.246-0.726-1.62c-0.558-0.444-1.36-0.622-2.514-0.622c-0.945,0-1.775,0.069-2.34,0.173V87.107L137.85,87.107z
			 M139.59,80.652c0.127-0.035,0.369-0.059,0.796-0.059c0.807,0,1.291,0.367,1.291,1.066c0,0.677-0.519,1.113-1.395,1.113h-0.692
			V80.652L139.59,80.652z M148.824,85.113l0.599,1.994h1.892l-2.422-7.77h-2.294l-2.374,7.77h1.821l0.542-1.994H148.824
			L148.824,85.113z M146.841,83.799l0.473-1.648c0.128-0.445,0.242-1.037,0.346-1.498h0.035c0.115,0.449,0.245,1.039,0.38,1.498
			l0.484,1.648H146.841L146.841,83.799z M152.248,87.107h4.842v-1.476H154v-6.294h-1.752V87.107L152.248,87.107z M160.789,87.073
			c0.427,0.06,1.084,0.117,1.994,0.117c1.521,0,2.778-0.325,3.597-1.005c0.738-0.634,1.279-1.66,1.279-3.147
			c0-1.383-0.507-2.352-1.313-2.95c-0.738-0.565-1.706-0.808-3.193-0.808c-0.876,0-1.718,0.058-2.363,0.173V87.073L160.789,87.073z
			 M162.541,80.698c0.15-0.034,0.415-0.069,0.796-0.069c1.521,0,2.467,0.795,2.467,2.467c0,1.856-1.049,2.732-2.651,2.721
			c-0.208,0-0.461,0-0.611-0.034V80.698L162.541,80.698z M173.436,82.393h-2.859v-1.613h3.032v-1.441h-4.784v7.77h4.945v-1.441
			h-3.193v-1.844h2.859V82.393L173.436,82.393z M185.293,82.67h-2.894v1.371h1.198v1.625c-0.138,0.059-0.461,0.104-0.853,0.104
			c-1.44,0-2.456-0.929-2.456-2.536c0-1.69,1.119-2.524,2.583-2.524c0.853,0,1.372,0.138,1.798,0.336l0.369-1.432
			c-0.381-0.161-1.152-0.356-2.155-0.356c-2.548,0-4.427,1.475-4.438,4.068c0,1.138,0.392,2.146,1.096,2.824
			c0.714,0.681,1.74,1.04,3.158,1.04c1.025,0,2.052-0.256,2.594-0.44V82.67L185.293,82.67z M189.973,87.236
			c2.271,0,3.805-1.535,3.805-4.094c0-2.145-1.303-3.932-3.689-3.932c-2.282,0-3.781,1.74-3.781,4.069
			c0,2.214,1.361,3.956,3.655,3.956H189.973L189.973,87.236z M190.031,85.84c-1.177,0-1.879-1.142-1.879-2.605
			c0-1.453,0.68-2.629,1.89-2.629c1.211,0,1.868,1.199,1.868,2.594c0,1.522-0.681,2.641-1.868,2.641H190.031L190.031,85.84z
			 M194.941,79.338v7.77h1.752v-7.77H194.941L194.941,79.338z M202.25,85.113l0.6,1.994h1.891l-2.421-7.77h-2.294l-2.375,7.77h1.821
			l0.542-1.994H202.25L202.25,85.113z M200.268,83.799l0.473-1.648c0.115-0.449,0.242-1.037,0.346-1.498h0.035
			c0.114,0.449,0.253,1.037,0.38,1.498l0.484,1.648H200.268L200.268,83.799z M201.455,77.471l-1.003,1.452h1.383l1.441-1.452
			H201.455L201.455,77.471z M205.479,86.75c0.438,0.242,1.313,0.486,2.201,0.486c2.133,0,3.124-1.108,3.124-2.411
			c0-1.106-0.634-1.821-2.006-2.329c-1.014-0.392-1.44-0.61-1.44-1.105c0-0.393,0.369-0.75,1.13-0.75
			c0.749,0,1.313,0.219,1.613,0.369l0.392-1.406c-0.461-0.22-1.095-0.393-1.982-0.393c-1.821,0-2.939,1.003-2.939,2.329
			c0,1.141,0.854,1.855,2.145,2.316c0.934,0.323,1.303,0.611,1.303,1.084c0,0.519-0.427,0.853-1.233,0.853
			c-0.75,0-1.488-0.241-1.948-0.483L205.479,86.75z"/>
	</g>
</g>
</svg>
